<svg width="500" height="300" viewBox="0 0 500 300" fill="none" xmlns="http://www.w3.org/2000/svg">

<path d="M183.83 136.058C169.133 132.38 151.298 127.33 147.623 125.453C145.558 123.795 134.826 111.109 134.826 111.109L128.884 77.174C138.828 80.2323 141.566 86.5107 144.82 98.5827C145.7 101.837 148.663 103.995 151.896 103.995C152.522 103.995 153.16 103.915 153.798 103.747C157.705 102.707 160.03 98.7001 158.978 94.8165C150.071 55.2455 108.241 60.5086 107.111 60.6509L107.088 60.6537C92.0346 61.6554 79.2111 57.895 78.1654 56.2967C77.012 54.6399 72.3708 47.208 71.6619 33.6232C71.4536 29.5997 67.9819 26.4898 63.9624 26.7205C63.0247 26.769 62.1447 27.0039 61.3309 27.3683C64.0379 24.5098 65.7225 20.6858 65.7225 16.4509C65.7225 7.62407 58.5341 0.469849 49.6604 0.469849C40.7867 0.469849 33.6045 7.62291 33.6045 16.4501C33.6045 25.2727 40.7933 32.4223 49.6608 32.4223C52.8695 32.4223 55.8391 31.4676 58.3467 29.8516C57.4516 31.1368 56.9409 32.6954 57.0222 34.3777C57.9661 52.4666 64.6125 62.626 66.6342 65.3069C70.5592 70.5335 81.3138 73.7636 92.8383 74.9124C92.8472 74.9537 92.8508 74.9863 92.8552 75.0269L92.8577 75.0492L101.882 117.89C101.882 117.89 99.5652 141.59 100.393 147.675L100.393 147.679C100.734 150.25 101.637 157.076 128.512 182.883C130.346 184.649 132.727 185.53 135.099 185.53C137.571 185.53 140.058 184.563 141.915 182.649C145.548 178.905 145.44 172.931 141.679 169.316C132.373 160.361 119.153 144.512 119.153 144.512C119.153 144.512 119.655 133.888 120.544 125.732C120.601 124.95 121.972 124.493 122.558 125.203C124.055 127.134 133.613 138.876 137.254 141.247C142.924 144.931 165.974 151.033 179.204 154.338C179.981 154.539 180.761 154.633 181.526 154.633C185.76 154.633 189.624 151.783 190.708 147.496C191.993 142.445 188.915 137.315 183.83 136.058ZM108.675 57.6932C118.87 55.5176 125.37 45.533 123.182 35.3971C120.999 25.2554 110.966 18.7964 100.774 20.9716C90.571 23.1472 84.0799 33.1287 86.2639 43.2603C88.449 53.402 98.4823 59.8642 108.675 57.6932ZM0 36.3168L3.40816 36.2667L48.0248 36.2394L38.6908 82.4094L10.9434 82.4425L0 36.3168ZM34.2349 77.9377L35.2303 79.8652L36.5931 79.8641L36.9884 77.9072L35.6194 75.2552L38.7508 69.1898L40.5332 60.3722L39.1623 63.0273L35.619 56.1642L39.1623 49.3008L41.7559 54.324L42.5352 50.4685L40.5476 46.6179L44.5887 38.7897L41.8178 38.7917L39.1623 43.9347L36.5087 38.7951L31.9581 38.7982L29.3056 43.9347L26.6555 38.8017L22.0979 38.8047L19.4489 43.9347L16.8023 38.8082L12.2377 38.8113L9.59226 43.9347L6.94873 38.8148L4.17977 38.8163L8.20739 46.6172L6.0664 50.7643L6.93983 54.4415L9.59419 49.3004L13.1375 56.1638L9.59419 63.0269L8.44898 60.8089L10.8002 70.7276L13.1375 75.2548L12.271 76.9332L12.9725 79.8922L13.5138 79.8914L14.5223 77.938L15.5297 79.8891L18.2979 79.8857L15.9068 75.2548L19.4505 68.3918L22.9938 75.2548L20.6046 79.8829L23.3763 79.8795L24.3786 77.9377L25.3798 79.8772L28.148 79.8741L25.7631 75.2548L29.3064 68.3918L32.8501 75.2548L30.4667 79.871L33.2384 79.8679L34.2349 77.9377ZM15.9065 56.1634L19.4494 49.3L22.9931 56.1634L19.4494 63.0265L15.9065 56.1634ZM10.9783 65.709L14.5208 72.572L18.0652 65.709L14.5208 58.8455L10.9783 65.709ZM24.3775 72.572L20.835 65.709L24.3775 58.8455L27.9219 65.709L24.3775 72.572ZM29.3061 49.3L25.7632 56.1634L29.3061 63.0265L32.8505 56.1634L29.3061 49.3ZM30.6914 65.709L34.2343 58.8455L37.7787 65.709L34.2343 72.572L30.6914 65.709ZM37.7787 46.6175L34.2343 39.7545L30.6914 46.6175L34.2343 53.4806L37.7787 46.6175ZM14.5208 39.7545L18.0652 46.6175L14.5208 53.4806L10.9783 46.6175L14.5208 39.7545ZM27.9219 46.6175L24.3775 39.7545L20.835 46.6175L24.3775 53.4806L27.9219 46.6175Z" fill="#008577"/>
</svg>