<svg width="500" height="300" viewBox="0 0 500 300" fill="none" xmlns="http://www.w3.org/2000/svg">

<path d="M60.5 0C27.0871 0 0 25.2963 0 56.5C0 87.7037 27.0871 113 60.5 113C93.9129 113 121 87.7037 121 56.5C120.963 25.311 93.8971 0.0349448 60.5 0ZM107.353 27.1014L103.16 43.7461L81.0704 50.6219L62.5167 36.7627V16.3412L83.6917 8.43178C93.2787 12.4881 101.469 18.951 107.353 27.1014ZM107.69 85.4002L87.6905 88.3493L76.8007 74.9149L82.3485 54.1983L104.193 47.3997L116.707 61.4226C115.854 69.985 112.757 78.2199 107.69 85.4002V85.4002ZM33.3981 88.3622L13.3102 85.4002C8.24293 78.2181 5.14703 69.9813 4.29526 61.4171L16.799 47.3942L38.6436 54.1927L44.1914 74.9204L33.3981 88.3622ZM4.05106 55.7974C4.15839 47.396 6.42812 39.1408 10.6682 31.7307L13.9394 44.7255L4.05106 55.7974ZM47.9579 73.45L42.608 53.4451L60.5 40.0788L78.3959 53.4506L73.0421 73.45H47.9579ZM107.061 44.7181L110.332 31.7233C114.572 39.1334 116.842 47.3877 116.949 55.7901L107.061 44.7181ZM78.1921 6.43166L60.5 13.0399L42.7134 6.462C54.2265 2.87834 66.6721 2.86822 78.1921 6.43166V6.43166ZM37.2118 8.475L58.4833 16.3477V36.7627L39.9296 50.6219L17.8398 43.7461L13.647 27.1014C19.5109 18.9805 27.6661 12.5341 37.2118 8.475ZM16.6798 89.7103L33.0731 92.1288L42.9871 106.631C32.6615 103.464 23.5294 97.5903 16.6798 89.7103ZM48.7693 108.081L36.7352 90.4864L47.3917 77.2167H73.6083L84.4174 90.5508L73.9313 107.713C65.6825 109.61 57.0811 109.739 48.7712 108.09L48.7693 108.081ZM79.5333 106.143L88.1287 92.0948L104.328 89.7085C97.8201 97.1931 89.2464 102.875 79.5333 106.143V106.143Z" fill="#008577"/>
</svg>